<?xml version="1.0" standalone="no"?><!DOCTYPE svg PUBLIC "-//W3C//DTD SVG 1.1//EN" "http://www.w3.org/Graphics/SVG/1.1/DTD/svg11.dtd"><svg t="1778429511643" class="icon" viewBox="0 0 1024 1024" version="1.1" xmlns="http://www.w3.org/2000/svg" p-id="8404" xmlns:xlink="http://www.w3.org/1999/xlink" width="200" height="200"><path d="M991.914667 853.162667h-118.385778c-51.2-160.369778-195.185778-273.009778-361.585778-273.009778-166.343111 0-310.328889 112.64-361.528889 273.009778H32.028444c-19.228444 0-32.028444-13.596444-32.028444-34.076445v-375.466666c0-37.546667 28.842667-68.266667 64.056889-68.266667h31.971555v-136.533333H32.028444c-19.228444 0-32.028444-13.653333-32.028444-34.133334s12.8-34.133333 32.028444-34.133333h959.886223c19.171556 0 31.971556 13.653333 31.971555 34.133333s-12.8 34.133333-31.971555 34.133334h-64v136.533333h31.971555c35.214222 0 64 30.72 64 68.266667v375.466666c0 20.48-12.8 34.076444-31.971555 34.076445zM287.971556 238.819556H159.971556v136.533333h128v-136.533333z m192 0h-128v136.533333h128v-136.533333z m192 0H543.971556v136.533333h128v-136.533333z m191.943111 0h-128v136.533333h128v-136.533333z" fill="#ffffff" p-id="8405"></path></svg>